REM DIRINDEX 1\2,1\4,1\5,1\6,1\7,1\3\8,1\3\9,1\3\10
REM DIRNAME cjc113,folder01,folder02,folder03,folder04,folder05,folder06,folder07,folder08,folder09
TITLE ""
FILE "DB4500_5th_4B_30.mp3" MP3
  TRACK 01 AUDIO
    TITLE "8:cjc113_2872"
    INDEX 01 00:00:00
  TRACK 02 AUDIO
    TITLE "0:"
    INDEX 01 00:01:13
  TRACK 03 AUDIO
    TITLE "9:cjc113_2873"
    INDEX 01 00:01:34
  TRACK 04 AUDIO
    TITLE "0:"
    INDEX 01 00:02:49
  TRACK 05 AUDIO
    TITLE "10:cjc113_2874"
    INDEX 01 00:02:69
  TRACK 06 AUDIO
    TITLE "0:"
    INDEX 01 00:06:30
  TRACK 07 AUDIO
    TITLE "8:cjc113_2875"
    INDEX 01 00:07:02
  TRACK 08 AUDIO
    TITLE "0:"
    INDEX 01 00:08:15
  TRACK 09 AUDIO
    TITLE "9:cjc113_2876"
    INDEX 01 00:08:36
  TRACK 10 AUDIO
    TITLE "0:"
    INDEX 01 00:09:63
  TRACK 11 AUDIO
    TITLE "10:cjc113_2877"
    INDEX 01 00:10:10
  TRACK 12 AUDIO
    TITLE "0:"
    INDEX 01 00:13:39
  TRACK 13 AUDIO
    TITLE "8:cjc113_2878"
    INDEX 01 00:14:11
  TRACK 14 AUDIO
    TITLE "0:"
    INDEX 01 00:15:28
  TRACK 15 AUDIO
    TITLE "9:cjc113_2879"
    INDEX 01 00:15:48
  TRACK 16 AUDIO
    TITLE "0:"
    INDEX 01 00:16:57
  TRACK 17 AUDIO
    TITLE "10:cjc113_2880"
    INDEX 01 00:17:06
  TRACK 18 AUDIO
    TITLE "0:"
    INDEX 01 00:21:00
  TRACK 19 AUDIO
    TITLE "8:cjc113_2881"
    INDEX 01 00:21:47
  TRACK 20 AUDIO
    TITLE "0:"
    INDEX 01 00:22:56
  TRACK 21 AUDIO
    TITLE "9:cjc113_2882"
    INDEX 01 00:23:03
  TRACK 22 AUDIO
    TITLE "0:"
    INDEX 01 00:24:59
  TRACK 23 AUDIO
    TITLE "10:cjc113_2883"
    INDEX 01 00:25:05
  TRACK 24 AUDIO
    TITLE "0:"
    INDEX 01 00:28:17
  TRACK 25 AUDIO
    TITLE "8:cjc113_2884"
    INDEX 01 00:28:64
  TRACK 26 AUDIO
    TITLE "0:"
    INDEX 01 00:29:70
  TRACK 27 AUDIO
    TITLE "9:cjc113_2885"
    INDEX 01 00:30:16
  TRACK 28 AUDIO
    TITLE "0:"
    INDEX 01 00:31:57
  TRACK 29 AUDIO
    TITLE "10:cjc113_2886"
    INDEX 01 00:32:03
  TRACK 30 AUDIO
    TITLE "0:"
    INDEX 01 00:34:71
  TRACK 31 AUDIO
    TITLE "8:cjc113_2887"
    INDEX 01 00:35:41
  TRACK 32 AUDIO
    TITLE "0:"
    INDEX 01 00:37:01
  TRACK 33 AUDIO
    TITLE "9:cjc113_2888"
    INDEX 01 00:37:22
  TRACK 34 AUDIO
    TITLE "0:"
    INDEX 01 00:38:55
  TRACK 35 AUDIO
    TITLE "10:cjc113_2889"
    INDEX 01 00:39:02
  TRACK 36 AUDIO
    TITLE "0:"
    INDEX 01 00:42:00
  TRACK 37 AUDIO
    TITLE "8:cjc113_2890"
    INDEX 01 00:42:47
  TRACK 38 AUDIO
    TITLE "0:"
    INDEX 01 00:45:39
  TRACK 39 AUDIO
    TITLE "9:cjc113_2891"
    INDEX 01 00:45:61
  TRACK 40 AUDIO
    TITLE "0:"
    INDEX 01 00:47:30
  TRACK 41 AUDIO
    TITLE "10:cjc113_2892"
    INDEX 01 00:47:52
  TRACK 42 AUDIO
    TITLE "0:"
    INDEX 01 00:53:57
  TRACK 43 AUDIO
    TITLE "8:cjc113_2893"
    INDEX 01 00:54:29
  TRACK 44 AUDIO
    TITLE "0:"
    INDEX 01 00:55:40
  TRACK 45 AUDIO
    TITLE "9:cjc113_2894"
    INDEX 01 00:55:61
  TRACK 46 AUDIO
    TITLE "0:"
    INDEX 01 00:57:29
  TRACK 47 AUDIO
    TITLE "10:cjc113_2895"
    INDEX 01 00:57:52
  TRACK 48 AUDIO
    TITLE "0:"
    INDEX 01 01:02:14
  TRACK 49 AUDIO
    TITLE "8:cjc113_2896"
    INDEX 01 01:02:61
  TRACK 50 AUDIO
    TITLE "0:"
    INDEX 01 01:03:71
  TRACK 51 AUDIO
    TITLE "9:cjc113_2897"
    INDEX 01 01:04:17
  TRACK 52 AUDIO
    TITLE "0:"
    INDEX 01 01:05:71
  TRACK 53 AUDIO
    TITLE "10:cjc113_2898"
    INDEX 01 01:06:20
  TRACK 54 AUDIO
    TITLE "0:"
    INDEX 01 01:09:57
  TRACK 55 AUDIO
    TITLE "8:cjc113_2899"
    INDEX 01 01:10:30
  TRACK 56 AUDIO
    TITLE "0:"
    INDEX 01 01:11:45
  TRACK 57 AUDIO
    TITLE "9:cjc113_2900"
    INDEX 01 01:11:66
  TRACK 58 AUDIO
    TITLE "0:"
    INDEX 01 01:13:40
  TRACK 59 AUDIO
    TITLE "10:cjc113_2901"
    INDEX 01 01:13:61
  TRACK 60 AUDIO
    TITLE "0:"
    INDEX 01 01:17:08
  TRACK 61 AUDIO
    TITLE "8:cjc113_2902"
    INDEX 01 01:17:57
  TRACK 62 AUDIO
    TITLE "0:"
    INDEX 01 01:18:70
  TRACK 63 AUDIO
    TITLE "9:cjc113_2903"
    INDEX 01 01:19:19
  TRACK 64 AUDIO
    TITLE "0:"
    INDEX 01 01:20:42
  TRACK 65 AUDIO
    TITLE "10:cjc113_2904"
    INDEX 01 01:20:61
  TRACK 66 AUDIO
    TITLE "0:"
    INDEX 01 01:24:36
  TRACK 67 AUDIO
    TITLE "8:cjc113_2905"
    INDEX 01 01:25:08
  TRACK 68 AUDIO
    TITLE "0:"
    INDEX 01 01:26:23
  TRACK 69 AUDIO
    TITLE "9:cjc113_2906"
    INDEX 01 01:26:44
  TRACK 70 AUDIO
    TITLE "0:"
    INDEX 01 01:27:51
  TRACK 71 AUDIO
    TITLE "10:cjc113_2907"
    INDEX 01 01:27:71
  TRACK 72 AUDIO
    TITLE "0:"
    INDEX 01 01:30:20
  TRACK 73 AUDIO
    TITLE "8:cjc113_2908"
    INDEX 01 01:30:67
  TRACK 74 AUDIO
    TITLE "0:"
    INDEX 01 01:32:04
  TRACK 75 AUDIO
    TITLE "9:cjc113_2909"
    INDEX 01 01:32:27
  TRACK 76 AUDIO
    TITLE "0:"
    INDEX 01 01:33:60
  TRACK 77 AUDIO
    TITLE "10:cjc113_2910"
    INDEX 01 01:34:06
  TRACK 78 AUDIO
    TITLE "0:"
    INDEX 01 01:37:42
